<svg xmlns="http://www.w3.org/2000/svg" viewBox="0 0 720 360" role="img" aria-label="CALL OF DUTY MOBILE">
<defs>
  <linearGradient id="g" x1="0" y1="0" x2="1" y2="1"><stop stop-color="#1f2937"/><stop offset="1" stop-color="#facc15"/></linearGradient>
  <radialGradient id="r"><stop stop-color="#fff" stop-opacity=".28"/><stop offset="1" stop-color="#fff" stop-opacity="0"/></radialGradient>
</defs>
<rect width="720" height="360" rx="28" fill="url(#g)"/>
<circle cx="590" cy="60" r="170" fill="url(#r)"/>
<circle cx="90" cy="340" r="160" fill="#000" opacity=".12"/>
<path d="M0 270 C150 210 235 330 420 250 S650 210 720 250 V360 H0Z" fill="#050816" opacity=".35"/>
<g transform="translate(48 52)">
 <rect width="150" height="150" rx="34" fill="#050816" opacity=".34" stroke="#fff" stroke-opacity=".18"/>
 <text x="75" y="96" text-anchor="middle" font-family="Arial,Helvetica,sans-serif" font-size="54" font-weight="900" fill="#fff">CODM</text>
</g>
<text x="48" y="248" font-family="Arial,Helvetica,sans-serif" font-size="38" font-weight="900" fill="#fff">CALL OF DUTY MOBILE</text>
<text x="50" y="286" font-family="Arial,Helvetica,sans-serif" font-size="20" font-weight="600" fill="#fff" opacity=".76">Action FPS</text>
<g opacity=".8" fill="none" stroke="#fff" stroke-width="4">
 <path d="M550 205 l36 -22 36 22 v42 l-36 22-36-22z"/>
 <path d="M604 157 l22 -14 22 14v26l-22 14-22-14z" opacity=".55"/>
 <path d="M520 276 h128" opacity=".35"/>
</g>
</svg>